<?xml version="1.0" standalone="no"?>
<!DOCTYPE svg PUBLIC "-//W3C//DTD SVG 20010904//EN"
 "http://www.w3.org/TR/2001/REC-SVG-20010904/DTD/svg10.dtd">
<svg version="1.0" xmlns="http://www.w3.org/2000/svg"
 width="119.000000pt" height="119.000000pt" viewBox="0 0 119.000000 119.000000"
 preserveAspectRatio="xMidYMid meet">
<metadata>
Created by potrace 1.14, written by Peter Selinger 2001-2017
</metadata>
<g transform="translate(0.000000,119.000000) scale(0.100000,-0.100000)"
fill="#000000" stroke="none">
<path d="M183 924 c-63 -23 -126 -89 -153 -160 -18 -48 -22 -79 -22 -164 0
-58 3 -112 5 -120 2 -8 8 -28 12 -45 19 -82 111 -167 202 -185 107 -23 261 10
313 65 21 22 23 33 22 132 0 59 0 120 -1 136 l-1 27 -133 0 -133 0 1 -52 0
-53 63 0 62 1 0 -63 c0 -60 -2 -64 -27 -75 -16 -6 -54 -11 -85 -11 -114 1
-158 69 -158 242 1 141 37 212 117 227 70 13 143 -30 154 -91 4 -17 13 -20 72
-20 l68 -1 -6 35 c-14 74 -55 130 -120 164 -53 27 -191 34 -252 11z"/>
<path d="M678 920 c-2 -8 -3 -161 -3 -340 l1 -325 169 0 c94 1 183 4 199 7 83
20 137 91 138 182 1 64 -21 107 -67 136 l-36 22 30 22 c73 51 78 183 10 247
-50 46 -108 59 -282 62 -132 2 -156 0 -159 -13z m328 -133 c28 -32 30 -56 9
-97 -9 -18 -26 -31 -46 -35 -51 -12 -139 -13 -145 -3 -6 9 -8 87 -5 152 1 16
9 18 82 14 74 -3 83 -6 105 -31z m-5 -251 c19 -8 36 -40 42 -81 4 -24 -1 -35
-27 -60 -31 -29 -39 -31 -114 -34 -62 -2 -82 1 -83 11 -1 16 -1 125 0 156 1
21 4 22 84 18 45 -2 89 -7 98 -10z"/>
</g>
</svg>
